inDegrees=no
num_controls=7
num_derivatives=13
num_iterations=75
num_multipliers=7
num_parameters=0
num_slacks=7
num_states=26
objective=0.427021
objective_accelerations=0.060585
objective_balance=0.002176
objective_effort=0.016039
objective_height=0.342198
objective_ligament=0.006024
solver_duration=1006.474798
status=Solve_Succeeded
success=true
DataType=double
version=3
OpenSimVersion=4.5
endheader
time	/jointset/ground_pelvis/pelvis_tilt/value	/jointset/ground_pelvis/pelvis_tx/value	/jointset/ground_pelvis/pelvis_ty/value	/jointset/hip_l/hip_flexion_l/value	/jointset/hip_l/hip_adduction_l/value	/jointset/hip_l/hip_rotation_l/value	/jointset/back/lumbar_extension/value	/jointset/patellofemoral_l/patellar_flexion_l/value	/jointset/knee_l/knee_flexion_l/value	/jointset/knee_l/knee_adduction_l/value	/jointset/knee_l/knee_rotation_l/value	/jointset/ankle_l/ankle_angle_l/value	/jointset/subtalar_l/subtalar_angle_l/value	/jointset/ground_pelvis/pelvis_tilt/speed	/jointset/ground_pelvis/pelvis_tx/speed	/jointset/ground_pelvis/pelvis_ty/speed	/jointset/hip_l/hip_flexion_l/speed	/jointset/hip_l/hip_adduction_l/speed	/jointset/hip_l/hip_rotation_l/speed	/jointset/back/lumbar_extension/speed	/jointset/patellofemoral_l/patellar_flexion_l/speed	/jointset/knee_l/knee_flexion_l/speed	/jointset/knee_l/knee_adduction_l/speed	/jointset/knee_l/knee_rotation_l/speed	/jointset/ankle_l/ankle_angle_l/speed	/jointset/subtalar_l/subtalar_angle_l/speed	/forceset/tau_hip_flexion_l	/forceset/tau_hip_adduction_l	/forceset/tau_hip_rotation_l	/forceset/tau_knee_flexion_l	/forceset/tau_ankle_angle_l	/forceset/tau_subtalar_angle_l	/forceset/tau_lumbar_extension	lambda_cid13_p0	lambda_cid13_p1	lambda_cid13_p2	lambda_cid13_p3	lambda_cid13_p4	lambda_cid13_p5	lambda_cid14_p0	/jointset/ground_pelvis/pelvis_tilt/accel	/jointset/ground_pelvis/pelvis_tx/accel	/jointset/ground_pelvis/pelvis_ty/accel	/jointset/hip_l/hip_flexion_l/accel	/jointset/hip_l/hip_adduction_l/accel	/jointset/hip_l/hip_rotation_l/accel	/jointset/back/lumbar_extension/accel	/jointset/patellofemoral_l/patellar_flexion_l/accel	/jointset/knee_l/knee_flexion_l/accel	/jointset/knee_l/knee_adduction_l/accel	/jointset/knee_l/knee_rotation_l/accel	/jointset/ankle_l/ankle_angle_l/accel	/jointset/subtalar_l/subtalar_angle_l/accel	gamma_cid13_p0	gamma_cid13_p1	gamma_cid13_p2	gamma_cid13_p3	gamma_cid13_p4	gamma_cid13_p5	gamma_cid14_p0
0.5	-0.2971007839656598	-0.009908160353623125	0.7674186547039497	1.104275760416048	-0.3579782707444946	-0.01072137966052538	-0.4052012286579348	0.9039511725245228	0.9039511725242105	-0.03863643929278753	-0.1744798410824072	0.2195385147226829	0.1329693176244489	-0.9670799913392291	-0.2639161780219326	-0.5400378428246044	2.686657558538001	0.06458908952110094	0.5328419000529508	-0.2953789648815333	1.850483290707892	1.850483290708574	0.2910999934181676	0.0005827282271345111	0.2816342500157706	0.17604492302016	-0.1268119144578711	0.003787621175663462	0.000437743331168092	-0.1906391804792686	0.04575012508540683	0.02465895560278032	0.129488431779256	-8.715449025318403	-8.251545580384374	-0.02985853352761274	-6.723225879414744	-437.6972774364781	-77.76407975390804	-6.831800003764933	0.4042572680471816	0.6052022652050237	-0.4608978794354504	-1.458749274522226	0.1786063123409671	-0.6838667911328843	1.544187123332641	-1.489559075059439	-1.48955907505952	-0.2904590521610189	0.01308657554719118	-0.6092055017164055	0.09792976475791305	-4.687670934401363e-07	-4.883392141757553e-07	4.730198246647288e-06	2.636482989128898e-07	-1.118653380106179e-06	-6.069327485724532e-08	-7.084542437566915e-07
0.51	-0.3067489423976152	-0.01251665962827977	0.7619965976549902	1.131063950212867	-0.3573262040521286	-0.005423240326620964	-0.4080788767070544	0.9223781402501342	0.9223781402500292	-0.03574816101845696	-0.1744738458880603	0.2223231317478316	0.1347307110202306	-0.962418525925638	-0.2577529747766675	-0.5442476708931839	2.670615430416916	0.06581657375362	0.5267245400759094	-0.2801362310871507	1.834650423231828	1.834650423232222	0.2865568820524908	0.0005974465540821212	0.2752499414779215	0.1762054674673585	-0.1324251238059488	0.00393806440269483	-0.0001759174178073863	-0.1923197667076376	0.04517265910808933	0.02571186476169145	0.1336038411942546	-9.012159736843261	-8.583438486934986	-0.06082576464913565	-6.758113800650704	-441.2494996595619	-78.4051562549293	-6.138694081221377	0.5170191511760697	0.6265402134717424	-0.3823601337936965	-1.731760470962059	0.09305089800258323	-0.5855342735348499	1.516478585799398	-1.668984623473593	-1.668984623516715	-0.5360605207263199	-0.006243256167812699	-0.6589484761385428	-0.02962850338630135	-4.539452398869585e-07	-2.782460957279394e-07	4.748483223350779e-06	2.916439135821773e-07	-1.069796117774626e-06	1.388454544810124e-07	-6.921439187987437e-07
0.52	-0.3163465005808027	-0.01506259469862693	0.7565361753526999	1.15768075555046	-0.3566622162335783	-0.0001882473269952351	-0.4108036650025689	0.9406390124930671	0.9406390124931656	-0.03290527852617967	-0.1744680850539253	0.2250427246983379	0.1364927608028669	-0.9569599415856068	-0.2514033371600358	-0.5477108934907373	2.652380666693413	0.06697331475794611	0.5202126331970657	-0.2648070141604332	1.817264194172015	1.817264194172122	0.2820208370086024	0.0005358561835753844	0.2686294350872974	0.1761762003910727	-0.1380383331540432	0.004088507629730028	-0.0007895781668147022	-0.1940003529360057	0.04459519313077596	0.0267647739206092	0.1377192506092355	-9.303163210029762	-8.924878605587496	-0.08050482571661592	-6.841850601328813	-444.7430170217575	-79.15568152911304	-5.488850016449451	0.5636810533352542	0.6424891394783151	-0.3115767852302595	-1.897276395005742	0.1644576667023722	-0.7627761714933667	1.561483749799638	-1.800231391809322	-1.800231391809276	-0.2890457878033514	-0.00217516394369286	-0.6564450722714078	0.05996746006102449	-4.348556147779296e-07	-5.220889642397163e-08	4.743637297276915e-06	3.19822186527864e-07	-1.016102676318019e-06	3.391024481287551e-07	-6.698285999399654e-07
0.53	-0.3258856819911678	-0.01754420950583507	0.7510448696065954	1.184104675975642	-0.3559868338582861	0.004980357773284616	-0.413374799698239	0.9587185100814302	0.958718510081685	-0.03010787894577521	-0.174462825519439	0.227695029710561	0.1382537801380366	-0.950749229320483	-0.2448986410725947	-0.5504209083286776	2.632052276750354	0.06809270863103016	0.5134574910211878	-0.2494262646028527	1.798384163731662	1.798384163732232	0.2774512589084121	0.0005020791372289609	0.2617929391777553	0.1759948287889564	-0.1436424928999351	0.004203901239178239	-0.001304749620116415	-0.1957738786887373	0.04393856101836528	0.02750949383180256	0.1417642798832534	-9.654617168011244	-9.111467125943019	-0.136776582469209	-6.78321647305848	-448.3564943998953	-79.65578952664028	-4.882114041473028	0.6687925411432672	0.6576742492634531	-0.2315093028766617	-2.153353645002432	0.08345671860610185	-0.6401145170819795	1.525419614370028	-1.969431213960822	-1.969431213891376	-0.542045284496631	-0.005144497889532033	-0.7030486411698161	-0.06268877669041865	-4.139421099765011e-07	1.618570997156469e-07	4.718058209923627e-06	3.449066043346402e-07	-9.59322881221735e-07	5.30344989790978e-07	-6.457060740900524e-07
